<svg xmlns="http://www.w3.org/2000/svg" viewBox="0 0 320 64" shape-rendering="crispEdges"><rect width="320" height="64" fill="none"/><rect x="4" y="4" width="56" height="56" rx="10" fill="#FF8FB1"/><rect x="23" y="8" width="3" height="3" fill="#FFC7DA"/><rect x="26" y="8" width="3" height="3" fill="#FFC7DA"/><rect x="35" y="8" width="3" height="3" fill="#FFC7DA"/><rect x="38" y="8" width="3" height="3" fill="#FFC7DA"/><rect x="17" y="11" width="3" height="3" fill="#FFC7DA"/><rect x="20" y="11" width="3" height="3" fill="#FFFFFF"/><rect x="23" y="11" width="3" height="3" fill="#FFFFFF"/><rect x="26" y="11" width="3" height="3" fill="#FFC7DA"/><rect x="29" y="11" width="3" height="3" fill="#FFC7DA"/><rect x="32" y="11" width="3" height="3" fill="#FFFFFF"/><rect x="35" y="11" width="3" height="3" fill="#FFFFFF"/><rect x="38" y="11" width="3" height="3" fill="#FFC7DA"/><rect x="41" y="11" width="3" height="3" fill="#FFC7DA"/><rect x="14" y="14" width="3" height="3" fill="#FFC7DA"/><rect x="17" y="14" width="3" height="3" fill="#FFFFFF"/><rect x="20" y="14" width="3" height="3" fill="#FFFFFF"/><rect x="23" y="14" width="3" height="3" fill="#FFFFFF"/><rect x="26" y="14" width="3" height="3" fill="#FFFFFF"/><rect x="29" y="14" width="3" height="3" fill="#FFFFFF"/><rect x="32" y="14" width="3" height="3" fill="#FFFFFF"/><rect x="35" y="14" width="3" height="3" fill="#FFFFFF"/><rect x="38" y="14" width="3" height="3" fill="#FFFFFF"/><rect x="41" y="14" width="3" height="3" fill="#FFFFFF"/><rect x="44" y="14" width="3" height="3" fill="#FFC7DA"/><rect x="14" y="17" width="3" height="3" fill="#FFC7DA"/><rect x="17" y="17" width="3" height="3" fill="#FFFFFF"/><rect x="20" y="17" width="3" height="3" fill="#FFFFFF"/><rect x="23" y="17" width="3" height="3" fill="#FFD966"/><rect x="26" y="17" width="3" height="3" fill="#FFD966"/><rect x="29" y="17" width="3" height="3" fill="#FFD966"/><rect x="32" y="17" width="3" height="3" fill="#FFFFFF"/><rect x="35" y="17" width="3" height="3" fill="#FFD966"/><rect x="38" y="17" width="3" height="3" fill="#FFFFFF"/><rect x="41" y="17" width="3" height="3" fill="#FFFFFF"/><rect x="44" y="17" width="3" height="3" fill="#FFC7DA"/><rect x="11" y="20" width="3" height="3" fill="#FFC7DA"/><rect x="14" y="20" width="3" height="3" fill="#FFFFFF"/><rect x="17" y="20" width="3" height="3" fill="#FFFFFF"/><rect x="20" y="20" width="3" height="3" fill="#FFFFFF"/><rect x="23" y="20" width="3" height="3" fill="#FFD966"/><rect x="26" y="20" width="3" height="3" fill="#FFD966"/><rect x="29" y="20" width="3" height="3" fill="#FFD966"/><rect x="32" y="20" width="3" height="3" fill="#FFD966"/><rect x="35" y="20" width="3" height="3" fill="#FFD966"/><rect x="38" y="20" width="3" height="3" fill="#FFFFFF"/><rect x="41" y="20" width="3" height="3" fill="#FFFFFF"/><rect x="44" y="20" width="3" height="3" fill="#FFFFFF"/><rect x="47" y="20" width="3" height="3" fill="#FFC7DA"/><rect x="11" y="23" width="3" height="3" fill="#FFC7DA"/><rect x="14" y="23" width="3" height="3" fill="#FFFFFF"/><rect x="17" y="23" width="3" height="3" fill="#FFFFFF"/><rect x="20" y="23" width="3" height="3" fill="#FFD966"/><rect x="23" y="23" width="3" height="3" fill="#FFD966"/><rect x="26" y="23" width="3" height="3" fill="#FFD966"/><rect x="29" y="23" width="3" height="3" fill="#FFFFFF"/><rect x="32" y="23" width="3" height="3" fill="#FFD966"/><rect x="35" y="23" width="3" height="3" fill="#FFD966"/><rect x="38" y="23" width="3" height="3" fill="#FFFFFF"/><rect x="41" y="23" width="3" height="3" fill="#FFFFFF"/><rect x="44" y="23" width="3" height="3" fill="#FFFFFF"/><rect x="47" y="23" width="3" height="3" fill="#FFC7DA"/><rect x="11" y="26" width="3" height="3" fill="#FFC7DA"/><rect x="14" y="26" width="3" height="3" fill="#FFFFFF"/><rect x="17" y="26" width="3" height="3" fill="#FFFFFF"/><rect x="20" y="26" width="3" height="3" fill="#FFD966"/><rect x="23" y="26" width="3" height="3" fill="#FFD966"/><rect x="26" y="26" width="3" height="3" fill="#FFD966"/><rect x="29" y="26" width="3" height="3" fill="#FFD966"/><rect x="32" y="26" width="3" height="3" fill="#FFD966"/><rect x="35" y="26" width="3" height="3" fill="#FFD966"/><rect x="38" y="26" width="3" height="3" fill="#FFFFFF"/><rect x="41" y="26" width="3" height="3" fill="#FFFFFF"/><rect x="44" y="26" width="3" height="3" fill="#FFFFFF"/><rect x="47" y="26" width="3" height="3" fill="#FFC7DA"/><rect x="11" y="29" width="3" height="3" fill="#FFC7DA"/><rect x="14" y="29" width="3" height="3" fill="#FFFFFF"/><rect x="17" y="29" width="3" height="3" fill="#FFFFFF"/><rect x="20" y="29" width="3" height="3" fill="#FFD966"/><rect x="23" y="29" width="3" height="3" fill="#FFD966"/><rect x="26" y="29" width="3" height="3" fill="#FFD966"/><rect x="29" y="29" width="3" height="3" fill="#FFD966"/><rect x="32" y="29" width="3" height="3" fill="#FFD966"/><rect x="35" y="29" width="3" height="3" fill="#FFD966"/><rect x="38" y="29" width="3" height="3" fill="#FFFFFF"/><rect x="41" y="29" width="3" height="3" fill="#FFFFFF"/><rect x="44" y="29" width="3" height="3" fill="#FFFFFF"/><rect x="47" y="29" width="3" height="3" fill="#FFC7DA"/><rect x="14" y="32" width="3" height="3" fill="#FFC7DA"/><rect x="17" y="32" width="3" height="3" fill="#FFFFFF"/><rect x="20" y="32" width="3" height="3" fill="#FFFFFF"/><rect x="23" y="32" width="3" height="3" fill="#FFFFFF"/><rect x="26" y="32" width="3" height="3" fill="#FFD966"/><rect x="29" y="32" width="3" height="3" fill="#FFD966"/><rect x="32" y="32" width="3" height="3" fill="#FFFFFF"/><rect x="35" y="32" width="3" height="3" fill="#FFFFFF"/><rect x="38" y="32" width="3" height="3" fill="#FFFFFF"/><rect x="41" y="32" width="3" height="3" fill="#FFFFFF"/><rect x="44" y="32" width="3" height="3" fill="#FFC7DA"/><rect x="14" y="35" width="3" height="3" fill="#FFC7DA"/><rect x="17" y="35" width="3" height="3" fill="#FFFFFF"/><rect x="20" y="35" width="3" height="3" fill="#FFFFFF"/><rect x="23" y="35" width="3" height="3" fill="#FFFFFF"/><rect x="26" y="35" width="3" height="3" fill="#FFFFFF"/><rect x="29" y="35" width="3" height="3" fill="#FFFFFF"/><rect x="32" y="35" width="3" height="3" fill="#FFFFFF"/><rect x="35" y="35" width="3" height="3" fill="#FFFFFF"/><rect x="38" y="35" width="3" height="3" fill="#FFFFFF"/><rect x="41" y="35" width="3" height="3" fill="#FFC7DA"/><rect x="17" y="38" width="3" height="3" fill="#FFC7DA"/><rect x="20" y="38" width="3" height="3" fill="#FFFFFF"/><rect x="23" y="38" width="3" height="3" fill="#FFFFFF"/><rect x="26" y="38" width="3" height="3" fill="#FFFFFF"/><rect x="29" y="38" width="3" height="3" fill="#FFC7DA"/><rect x="32" y="38" width="3" height="3" fill="#FFFFFF"/><rect x="35" y="38" width="3" height="3" fill="#FFFFFF"/><rect x="38" y="38" width="3" height="3" fill="#FFFFFF"/><rect x="41" y="38" width="3" height="3" fill="#FFC7DA"/><rect x="20" y="41" width="3" height="3" fill="#FFC7DA"/><rect x="23" y="41" width="3" height="3" fill="#FFFFFF"/><rect x="26" y="41" width="3" height="3" fill="#FFFFFF"/><rect x="29" y="41" width="3" height="3" fill="#FFC7DA"/><rect x="32" y="41" width="3" height="3" fill="#FFC7DA"/><rect x="35" y="41" width="3" height="3" fill="#FFFFFF"/><rect x="38" y="41" width="3" height="3" fill="#FFFFFF"/><rect x="41" y="41" width="3" height="3" fill="#FFC7DA"/><rect x="23" y="44" width="3" height="3" fill="#FFC7DA"/><rect x="26" y="44" width="3" height="3" fill="#FFC7DA"/><rect x="35" y="44" width="3" height="3" fill="#FFC7DA"/><rect x="38" y="44" width="3" height="3" fill="#FFC7DA"/><rect x="26" y="47" width="3" height="3" fill="#FFC7DA"/><rect x="35" y="47" width="3" height="3" fill="#FFC7DA"/><rect x="29" y="50" width="3" height="3" fill="#FFC7DA"/><rect x="32" y="50" width="3" height="3" fill="#FFC7DA"/><text x="74" y="30" font-family="'Press Start 2P','Courier New',monospace" font-size="15" fill="#7B5B7B">HANNAH'S</text><text x="74" y="52" font-family="'Press Start 2P','Courier New',monospace" font-size="15" fill="#FF8FB1">WORKBENCH</text></svg>